<?xml version="1.0" standalone="no"?>
<!DOCTYPE svg PUBLIC "-//W3C//DTD SVG 1.1//EN" "http://www.w3.org/Graphics/SVG/1.1/DTD/svg11.dtd" >
<svg xmlns="http://www.w3.org/2000/svg">
<metadata>
This is a custom SVG webfont generated by Font Squirrel.
Copyright   : Copyright c 1992 YOFonts All rights reserved Version 110 Designed by Yasuhiro Yamaoka 1992
Designer    : Yamaoka Yasuhiro
Foundry     : YOFonts
Foundry URL : wwwyoworkscom
</metadata>
<defs>
<font id="EauSansBookOblique" horiz-adv-x="530" >
<font-face units-per-em="2048" ascent="1638" descent="-410" />
<missing-glyph horiz-adv-x="500" />
<glyph unicode=" " />
<glyph unicode="!" horiz-adv-x="575" d="M76 0l41 197h196l-41 -197h-196zM184 379l205 1139h213l-280 -1139h-138z" />
<glyph unicode="&#x22;" horiz-adv-x="864" d="M272 1124l140 394h204l-215 -394h-129zM606 1124l139 394h205l-215 -394h-129z" />
<glyph unicode="#" horiz-adv-x="1167" d="M55 596l29 129h240l155 367h-219l27 129h243l125 297h127l-123 -297h263l125 297h127l-121 -297h213l-27 -129h-242l-153 -367h219l-29 -129h-243l-121 -293h-129l121 293h-263l-120 -293h-129l120 293h-215zM455 725h262l151 367h-260z" />
<glyph unicode="$" horiz-adv-x="1015" d="M-2 219l127 107q88 -113 264 -129l111 520l-80 28q-262 96 -205 355q27 131 141.5 236.5t300.5 127.5l29 129h107l-27 -125q219 -8 342 -170l-129 -106q-96 121 -244 131l-100 -469l43 -16q143 -53 214 -141.5t38 -246t-157 -268t-308 -131.5l-27 -121h-106l26 119 q-239 16 -360 170zM389 1100q-33 -145 117 -201l31 -10l90 426q-100 -20 -161 -81.5t-77 -133.5zM496 201q102 18 171.5 88.5t88.5 161.5q18 84 -26 144t-132 87z" />
<glyph unicode="%" horiz-adv-x="1781" d="M193 1092q41 195 170 317.5t284.5 122.5t233 -123t37.5 -317q-43 -195 -172.5 -317t-285 -122t-233 122t-34.5 317zM203 -76l1339 1669h129l-1339 -1669h-129zM332 1092q-29 -137 15 -227.5t140.5 -90.5t179.5 90t111 228q29 139 -15 229t-140.5 90t-179 -90t-111.5 -229 zM954 424q43 195 173 317.5t284 122.5q156 0 233.5 -123t34.5 -317q-41 -195 -170 -316.5t-284 -121.5q-154 0 -233 121.5t-38 316.5zM1094 424q-29 -137 16 -227.5t141.5 -90.5t178 89.5t110.5 228.5q31 139 -13 229t-140.5 90t-179 -90t-113.5 -229z" />
<glyph unicode="&#x26;" horiz-adv-x="1394" d="M82 393q59 270 395 443q-90 115 -116.5 194.5t-4.5 183.5q27 123 144.5 224.5t285.5 101.5q170 0 244 -100.5t47 -225.5q-29 -129 -113.5 -217t-240.5 -178l309 -389q98 158 152 404h168q-68 -317 -224 -527l244 -307h-225l-135 170q-238 -193 -527 -193 q-225 0 -333.5 115t-69.5 301zM258 395q-27 -119 48 -196.5t208 -77.5q231 0 410 162l-365 458q-135 -70 -205.5 -148.5t-95.5 -197.5zM522 1214q-16 -80 9.5 -138t111.5 -161q129 70 191.5 138.5t83.5 160.5q14 72 -29 130.5t-131 58.5q-86 0 -154 -58.5t-82 -130.5z" />
<glyph unicode="'" d="M264 1124l139 394h205l-213 -394h-131z" />
<glyph unicode="(" horiz-adv-x="681" d="M197 758q88 412 436 835l123 -69q-156 -195 -254.5 -371t-145.5 -395q-84 -391 74 -766l-151 -68q-170 426 -82 834z" />
<glyph unicode=")" horiz-adv-x="681" d="M20 -8q154 193 251.5 370t144.5 396q84 393 -70 766l150 69q166 -430 79 -835q-88 -406 -434 -834z" />
<glyph unicode="*" horiz-adv-x="839" d="M221 1229l53 100l242 -86l57 275h107l-57 -275l276 86l10 -100l-276 -84l112 -221l-96 -62l-114 219l-207 -219l-74 62l209 221z" />
<glyph unicode="+" horiz-adv-x="1138" d="M119 676l28 135h410l86 410h137l-86 -410h410l-29 -135h-409l-88 -410h-138l88 410h-409z" />
<glyph unicode="," d="M-33 -197l142 394h204l-215 -394h-131z" />
<glyph unicode="-" horiz-adv-x="675" d="M80 500l31 137h493l-31 -137h-493z" />
<glyph unicode="." d="M51 0l41 197h199l-41 -197h-199z" />
<glyph unicode="/" horiz-adv-x="606" d="M-92 -76l770 1669h115l-773 -1669h-112z" />
<glyph unicode="0" horiz-adv-x="1335" d="M159.5 758q73.5 350 270.5 566t448.5 216t356 -216t31 -566t-270 -565.5t-448.5 -215.5t-356.5 215.5t-31 565.5zM348 758q-59 -285 2.5 -453t231.5 -168t303 168t192 453q61 287 0 454.5t-231 167.5t-303.5 -167.5t-194.5 -454.5z" />
<glyph unicode="1" horiz-adv-x="788" d="M203 1180l33 151q94 12 210.5 70.5t184.5 116.5h145l-321 -1518h-174l278 1317q-51 -43 -153.5 -84t-202.5 -53z" />
<glyph unicode="2" horiz-adv-x="1138" d="M0 0l29 143q496 410 678 603.5t217 361.5q25 113 -29.5 192.5t-177.5 79.5q-98 0 -174 -34.5t-160 -104.5l-92 117q217 182 459 182q205 0 303 -124t59 -308q-39 -180 -229.5 -389t-616.5 -559h692l-32 -160h-926z" />
<glyph unicode="3" horiz-adv-x="1167" d="M25 160l141 116q55 -70 117.5 -104.5t160.5 -34.5q154 0 261.5 85t132.5 202q27 119 -46 204t-227 85h-159l34 157h160q139 0 236.5 74t119.5 182q25 109 -41.5 181.5t-205.5 72.5q-162 0 -334 -139l-92 117q221 182 458 182q221 0 333 -115.5t73 -298.5 q-29 -131 -130.5 -220t-197.5 -113q113 -31 173.5 -141.5t35.5 -227.5q-39 -182 -213 -314.5t-405 -132.5q-137 0 -237.5 49.5t-147.5 133.5z" />
<glyph unicode="4" horiz-adv-x="1273" d="M72 379l32 151l908 988h168l-209 -979h225l-33 -160h-225l-80 -379h-168l80 379h-698zM301 539h502l153 721z" />
<glyph unicode="5" horiz-adv-x="1167" d="M41 160l141 116q111 -139 279 -139q152 0 263.5 99.5t139.5 234.5q29 133 -40.5 233.5t-221.5 100.5q-131 0 -250 -80l-137 78l152 715h835l-35 -160h-661l-94 -447q106 51 223 52q231 0 347 -145.5t73 -346.5q-43 -211 -218 -352.5t-411 -141.5q-137 0 -237.5 49.5 t-147.5 133.5z" />
<glyph unicode="6" horiz-adv-x="1335" d="M182 758q76 356 275.5 569t488.5 213q133 0 235.5 -54t157.5 -128l-141 -117q-104 139 -285 139q-207 0 -346 -164.5t-202 -457.5q49 72 164.5 138.5t248.5 66.5q231 0 347 -145.5t73 -346.5q-43 -211 -218 -352.5t-411 -141.5q-274 0 -367.5 214.5t-19.5 566.5zM340 471 q-29 -135 42 -234.5t222.5 -99.5t263 99.5t140.5 234.5q29 133 -41 233.5t-224 100.5q-150 0 -262 -100.5t-141 -233.5z" />
<glyph unicode="7" horiz-adv-x="1138" d="M135 0q211 455 416 775.5t455 582.5h-766l34 160h979l-30 -146q-272 -281 -483.5 -606.5t-405.5 -765.5h-199z" />
<glyph unicode="8" horiz-adv-x="1273" d="M88 424q25 115 133.5 226.5t227.5 140.5q-82 27 -145.5 116.5t-37.5 218.5q39 182 200 298t382 116t332.5 -115.5t72.5 -298.5q-29 -131 -129 -220t-196 -113q111 -31 171 -142.5t36 -226.5q-39 -182 -213 -314.5t-405.5 -132.5t-349.5 132.5t-79 314.5zM276 424 q-25 -117 48 -202t227 -85t261.5 85t131.5 202q27 119 -46 204t-226.5 85t-261 -85t-134.5 -204zM457 1126q-23 -109 44.5 -182.5t205.5 -73.5q139 0 236 74t120 182q25 109 -42 181.5t-206 72.5q-137 0 -235 -72.5t-123 -181.5z" />
<glyph unicode="9" horiz-adv-x="1335" d="M84 160l143 116q106 -139 287 -139q207 0 346 164t201 457q-49 -72 -165 -138.5t-249 -66.5q-231 0 -347 146.5t-73 347.5q43 209 219.5 350t409.5 143q139 0 235.5 -58.5t138.5 -164t47 -248.5t-34 -311q-76 -356 -275.5 -568.5t-488.5 -212.5q-131 0 -234.5 54.5 t-160.5 128.5zM418 1047q-29 -133 40.5 -233.5t223.5 -100.5q152 0 263.5 100t140 233.5t-41 233.5t-221 100t-264 -99t-141.5 -234z" />
<glyph unicode=":" d="M51 0l41 197h199l-41 -197h-199zM240 895l43 197h198l-43 -197h-198z" />
<glyph unicode=";" d="M-33 -197l142 394h204l-215 -394h-131zM240 895l43 197h198l-43 -197h-198z" />
<glyph unicode="&#x3c;" horiz-adv-x="591" d="M133 606l305 426h176l-305 -426l123 -424h-176z" />
<glyph unicode="=" horiz-adv-x="1138" d="M78 485l28 138h957l-29 -138h-956zM158 864l28 137h957l-29 -137h-956z" />
<glyph unicode="&#x3e;" horiz-adv-x="591" d="M4 182l303 424l-121 426h176l121 -426l-303 -424h-176z" />
<glyph unicode="?" horiz-adv-x="1038" d="M233 0l41 197h199l-41 -197h-199zM233 1358q223 182 455 182q197 0 302.5 -120t68.5 -290q-25 -111 -82 -186.5t-162 -163.5l-133 -110q-92 -76 -129 -132.5t-57 -158.5h-166q47 223 215 362l135 111q84 70 126 127t62 151q20 98 -39 174t-174 76q-166 0 -329 -139z" />
<glyph unicode="@" horiz-adv-x="1728" d="M80 780q8 147 74.5 285.5t174 246t261 172t325.5 64.5q354 0 562.5 -219t177.5 -555q-16 -188 -141 -319t-281 -131q-76 0 -118 47t-42 133q-33 -84 -132 -134.5t-189 -50.5q-156 0 -248 123t-59.5 309.5t168 308.5t290.5 122q84 0 159 -44t93 -114l25 139h133l-111 -624 q-18 -109 70 -109q96 0 170 103.5t88 254.5q23 283 -143 464.5t-459 181.5q-283 0 -483.5 -205t-225.5 -471q-25 -293 142 -483.5t456 -190.5q260 0 467 190l80 -86q-252 -219 -565 -219q-338 0 -540 233.5t-179 577.5zM584 752q-23 -131 36.5 -220.5t170 -89.5t201.5 89.5 t113.5 220.5t-36.5 220t-170 89q-113 0 -202.5 -88t-112.5 -221z" />
<glyph unicode="A" horiz-adv-x="1335" d="M-106 0l882 1518h197l239 -1518h-196l-58 387h-649l-219 -387h-196zM399 547h537l-109 751z" />
<glyph unicode="B" horiz-adv-x="1290" d="M82 0l321 1518h508q219 0 312 -106q67 -77 67 -183q0 -40 -10 -84q-29 -143 -142.5 -246.5t-269.5 -124.5q166 -4 251 -101q62 -71 63 -168q0 -35 -8 -73q-43 -205 -197 -318.5t-410 -113.5h-485zM297 160h303q326 0 387 280q6 30 6 56q0 76 -52 127q-71 68 -228 67h-303 zM444 850h275q137 0 237.5 70.5t126.5 193.5q9 41 9 75q0 64 -30 105q-46 63 -188 64h-323z" />
<glyph unicode="C" horiz-adv-x="1318" d="M143 758q74 346 314.5 564t558.5 218q279 0 422 -182l-142 -117q-59 74 -131.5 106.5t-181.5 32.5q-227 0 -407.5 -170t-241.5 -452q-21 -99 -21 -185q0 -156 70 -266q109 -170 336 -170q205 0 373 139l92 -116q-221 -182 -500 -183q-317 0 -466 219q-99 146 -99 347 q0 101 24 215z" />
<glyph unicode="D" horiz-adv-x="1472" d="M82 0l321 1518h404q336 0 512 -197q122 -136 122 -355q0 -96 -24 -208q-78 -362 -341 -560t-591 -198h-403zM297 160h221q254 0 451.5 152.5t259.5 445.5q21 95 20 174q0 168 -90 272q-133 154 -387 154h-221z" />
<glyph unicode="E" horiz-adv-x="1107" d="M82 0l321 1518h775l-35 -160h-592l-107 -508h578l-35 -160h-577l-113 -530h606l-33 -160h-788z" />
<glyph unicode="F" horiz-adv-x="1062" d="M82 0l321 1518h789l-35 -160h-606l-107 -508h592l-35 -160h-591l-146 -690h-182z" />
<glyph unicode="G" horiz-adv-x="1425" d="M143 758q76 348 316.5 565t570.5 217q295 0 438 -182l-141 -117q-113 139 -330 139q-238 0 -420 -170t-243 -452q-21 -99 -21 -184q0 -158 72 -268q111 -169 348 -169q178 0 316 66l92 434h-355l33 160h537l-148 -699q-246 -121 -510 -121q-330 0 -479 218 q-100 145 -100 348q0 101 24 215z" />
<glyph unicode="H" horiz-adv-x="1456" d="M82 0l321 1518h183l-142 -668h699l141 668h182l-321 -1518h-182l145 690h-698l-146 -690h-182z" />
<glyph unicode="I" horiz-adv-x="575" d="M82 0l321 1518h183l-322 -1518h-182z" />
<glyph unicode="J" horiz-adv-x="970" d="M-74 162l140 114q29 -63 87 -101t128 -38q100 0 175.5 64.5t100.5 177.5l242 1139h182l-242 -1139q-41 -190 -182 -300t-313 -110q-216 0 -318 193z" />
<glyph unicode="K" horiz-adv-x="1236" d="M82 0l321 1518h183l-152 -713l752 713h227l-803 -744l504 -774h-231l-461 743l-158 -743h-182z" />
<glyph unicode="L" horiz-adv-x="985" d="M82 0l321 1518h183l-289 -1358h606l-33 -160h-788z" />
<glyph unicode="M" horiz-adv-x="1835" d="M82 0l321 1518h287l158 -1303l711 1303h286l-321 -1518h-183l277 1303l-711 -1303h-209l-157 1303l-277 -1303h-182z" />
<glyph unicode="N" horiz-adv-x="1472" d="M82 0l321 1518h259l366 -1274l270 1274h183l-324 -1520h-258l-364 1276l-271 -1274h-182z" />
<glyph unicode="O" horiz-adv-x="1548" d="M143 758q74 342 309.5 562t532.5 220q295 0 438 -220q95 -145 95 -344q0 -102 -25 -218q-72 -342 -308.5 -561.5t-531.5 -219.5q-297 0 -439 220q-95 146 -95 345q0 101 24 216zM334 758q-22 -101 -22 -188q0 -153 67 -262q104 -171 309 -171t381 172t236 449 q22 102 21 189q0 152 -65 261q-103 172 -308 172t-382.5 -171.5t-236.5 -450.5z" />
<glyph unicode="P" horiz-adv-x="1214" d="M82 0l321 1518h471q223 0 329 -121q77 -88 77 -212q0 -45 -10 -95q-41 -195 -196.5 -313t-381.5 -118h-289l-139 -659h-182zM438 819h289q141 0 233.5 75t116.5 193q8 36 8 68q0 74 -43 127q-61 76 -202 76h-289z" />
<glyph unicode="Q" horiz-adv-x="1548" d="M143 758q74 342 309.5 562t532.5 220q295 0 438 -220q95 -145 95 -344q0 -102 -25 -218q-76 -350 -313 -563l235 -134l-149 -122l-244 139q-178 -100 -369 -101q-297 0 -439 220q-95 146 -95 345q0 101 24 216zM334 758q-22 -101 -22 -188q0 -153 67 -262 q104 -171 309 -171t381 172t236 449q22 102 21 189q0 152 -65 261q-103 172 -308 172t-382.5 -171.5t-236.5 -450.5z" />
<glyph unicode="R" horiz-adv-x="1290" d="M82 0l321 1518h508q219 0 312 -106q67 -77 67 -183q0 -40 -10 -84q-27 -131 -123 -232.5t-223 -136.5q88 -8 130 -69.5t42 -155.5l-6 -551h-195l4 520q0 7 1 13q0 69 -40 111q-43 46 -125 46h-335l-146 -690h-182zM444 850h275q137 0 237.5 70.5t126.5 193.5q9 41 9 75 q0 64 -30 105q-46 63 -188 64h-323z" />
<glyph unicode="S" horiz-adv-x="1130" d="M-6 160l141 116q117 -147 330 -147q141 0 242.5 80t130.5 209q5 25 5 48q0 140 -192 210l-198 69q-231 84 -231 293q0 47 11 101q33 158 189 283.5t391 125.5q264 0 416 -188l-144 -119q-121 147 -305 148q-145 0 -241.5 -75t-116.5 -175q-7 -30 -7 -57q0 -120 138 -169 l201 -71q284 -103 284 -333q0 -43 -10 -91q-43 -201 -206 -325t-392 -124q-289 1 -436 191z" />
<glyph unicode="T" horiz-adv-x="1138" d="M188 1366l33 152h1108l-33 -152h-462l-289 -1366h-183l289 1366h-463z" />
<glyph unicode="U" horiz-adv-x="1456" d="M180 463l223 1055h183l-224 -1055q-11 -49 -10 -91q0 -95 55 -156q79 -87 234 -87q154 0 269.5 87t150.5 247l223 1055h182l-223 -1055q-53 -244 -229 -369t-407.5 -125t-355.5 125q-87 87 -87 233q0 63 16 136z" />
<glyph unicode="V" horiz-adv-x="1290" d="M221 1518h199l155 -1299l709 1299h197l-844 -1518h-213z" />
<glyph unicode="W" horiz-adv-x="1908" d="M238 1518h196l45 -1239l574 1239h217l45 -1239l573 1239h197l-717 -1518h-221l-47 1225l-568 -1225h-223z" />
<glyph unicode="X" horiz-adv-x="1347" d="M-76 0l699 782l-349 736h222l258 -594l510 594h221l-658 -736l367 -782h-219l-281 641l-551 -641h-219z" />
<glyph unicode="Y" horiz-adv-x="1140" d="M131 1518h219l289 -656l565 656h219l-729 -818l-147 -700h-182l147 700z" />
<glyph unicode="Z" horiz-adv-x="1062" d="M-39 0l33 160l952 1198h-684l35 160h881l-35 -160l-953 -1198h713l-33 -160h-909z" />
<glyph unicode="[" horiz-adv-x="636" d="M51 -76l355 1669h364l-31 -145h-198l-293 -1380h198l-30 -144h-365z" />
<glyph unicode="\" horiz-adv-x="606" d="M262 1593h113l63 -1669h-114z" />
<glyph unicode="]" horiz-adv-x="636" d="M-41 -76l31 144h198l293 1380h-198l30 145h365l-354 -1669h-365z" />
<glyph unicode="^" horiz-adv-x="681" d="M193 1198l270 350h182l123 -350h-160l-80 219l-176 -219h-159z" />
<glyph unicode="_" horiz-adv-x="743" d="M-115 0l25 121h743l-24 -121h-744z" />
<glyph unicode="`" horiz-adv-x="681" d="M365 1548h204l101 -350h-129z" />
<glyph unicode="a" horiz-adv-x="1153" d="M68 295q31 145 172 247.5t395 102.5h190l25 113q4 21 4 40q0 61 -43 109q-57 63 -168 64q-166 0 -295 -105l-84 107q182 150 412 149q190 0 282 -102q67 -74 67 -179q0 -39 -9 -83l-160 -758h-166l37 182q-51 -92 -154.5 -148.5t-230.5 -56.5q-143 0 -223 93 q-59 68 -59 157q0 33 8 68zM242 295q-4 -20 -5 -38q0 -50 33 -83q45 -45 142 -45q143 0 245.5 104.5t122.5 198.5l15 68h-213q-147 0 -234.5 -61.5t-105.5 -143.5z" />
<glyph unicode="b" horiz-adv-x="1267" d="M68 0l321 1518h166l-127 -600q55 88 170 142t221 54q195 0 302 -158q72 -105 72 -253q0 -73 -17 -156q-53 -254 -228.5 -412t-369.5 -158q-106 0 -197.5 53.5t-112.5 135.5l-35 -166h-165zM348 547q-14 -67 -14 -125q0 -103 45 -177q70 -116 209 -116t257 115.5 t156 302.5q14 69 15 128q0 101 -42 173q-67 115 -210 115q-139 0 -258 -116t-158 -300z" />
<glyph unicode="c" horiz-adv-x="1001" d="M90 547q53 248 236.5 407.5t400.5 159.5q90 0 172 -38t131 -103l-129 -107q-70 96 -207 97q-147 0 -268 -118t-160 -298q-14 -64 -13 -120q0 -103 46 -180q72 -118 219 -118q131 0 248 96l84 -104q-170 -143 -365 -144q-217 0 -331 161q-79 111 -80 264q0 69 16 145z" />
<glyph unicode="d" horiz-adv-x="1267" d="M90 547q53 252 229.5 409.5t370.5 157.5q106 0 196.5 -54t110.5 -142l127 600h168l-321 -1518h-168l35 166q-57 -82 -171 -135.5t-218 -53.5q-195 0 -304 158q-73 106 -72 255q-1 73 17 157zM266 547q-14 -67 -14 -126q0 -103 44 -176q69 -116 208 -116t257 115.5 t157 302.5q14 67 14 124q0 102 -44 176q-69 116 -208 116q-143 0 -259 -115t-155 -301z" />
<glyph unicode="e" horiz-adv-x="1122" d="M90 547q53 248 225 407.5t375 159.5q199 0 301 -155q62 -94 63 -246q0 -98 -26 -219h-772q-4 -34 -4 -65q0 -120 57 -200q72 -100 226 -100q150 0 270 96l84 -104q-174 -143 -387 -144q-229 0 -346 160q-81 111 -81 266q-1 68 15 144zM295 645h575q2 25 3 48 q0 107 -48 180q-57 89 -168 90q-113 0 -215 -90.5t-147 -227.5z" />
<glyph unicode="f" horiz-adv-x="757" d="M131 948l31 144h213l39 182q23 104 115 181t227 77q76 0 133 -14l-31 -146q-43 16 -88 17q-168 0 -197 -146l-32 -151h252l-31 -144h-252l-201 -948h-166l201 948h-213z" />
<glyph unicode="g" horiz-adv-x="1267" d="M-16 -244l129 107q90 -113 280 -113q152 0 272.5 90t151.5 236l31 137q-61 -90 -167 -147.5t-226 -57.5q-195 0 -303 156q-74 106 -74 251q0 69 16 146q51 242 226.5 397.5t369.5 155.5q119 0 201 -56.5t106 -139.5l37 174h168l-217 -1016q-43 -207 -212 -342t-413 -135 q-253 -1 -376 157zM270 561q-14 -64 -14 -120q0 -97 43 -169q68 -113 211 -112q137 0 255 113.5t157 287.5q12 57 11 107q0 101 -46 179q-70 116 -207 116t-256 -116t-154 -286z" />
<glyph unicode="h" horiz-adv-x="1273" d="M68 0l321 1518h166l-129 -609q53 92 157.5 148.5t235.5 56.5q182 0 264 -112q55 -74 55 -184q0 -55 -14 -120l-147 -698h-166l147 698q9 44 9 80q0 72 -34 117q-52 68 -169 68q-147 0 -260 -109t-156 -307l-115 -547h-165z" />
<glyph unicode="i" d="M68 0l231 1092h166l-232 -1092h-165zM342 1335l39 183h182l-39 -183h-182z" />
<glyph unicode="j" horiz-adv-x="546" d="M-256 -379l31 143q49 -14 92 -14q162 0 190 144l256 1198h168l-262 -1229q-20 -104 -114.5 -181t-227.5 -77q-80 0 -133 16zM358 1335l39 183h181l-39 -183h-181z" />
<glyph unicode="k" horiz-adv-x="1091" d="M68 0l321 1518h166l-197 -926l609 500h227l-659 -531l464 -561h-241l-414 524l-111 -524h-165z" />
<glyph unicode="l" d="M68 0l321 1518h166l-322 -1518h-165z" />
<glyph unicode="m" horiz-adv-x="1851" d="M68 0l231 1092h166l-39 -183q135 205 354 205q137 0 200.5 -69.5t74.5 -157.5q158 227 385 227q166 0 234 -110q43 -69 43 -172q0 -61 -15 -134l-148 -698h-168l148 698q11 55 11 99q0 166 -167 166q-113 0 -220 -112t-148 -304l-115 -547h-168l147 698q11 54 12 98 q0 167 -169 167q-111 0 -219.5 -112t-149.5 -304l-115 -547h-165z" />
<glyph unicode="n" horiz-adv-x="1273" d="M68 0l231 1092h166l-39 -183q53 92 157.5 148.5t235.5 56.5q182 0 264 -112q55 -74 55 -184q0 -55 -14 -120l-147 -698h-166l147 698q9 44 9 80q0 72 -34 117q-52 68 -169 68q-147 0 -260 -109t-156 -307l-115 -547h-165z" />
<glyph unicode="o" horiz-adv-x="1183" d="M90 547q53 254 232.5 410.5t390.5 156.5t321 -157q75 -106 75 -255q0 -72 -17 -155q-53 -256 -231.5 -413t-389.5 -157t-323 157q-76 106 -75 258q0 72 17 155zM266 547q-14 -67 -14 -126q0 -103 44 -176q69 -116 208 -116t257 115.5t157 302.5q14 69 14 128 q0 101 -42 173q-67 115 -210 115q-139 0 -257 -116t-157 -300z" />
<glyph unicode="p" horiz-adv-x="1267" d="M-14 -379l313 1471h166l-37 -174q55 88 170 142t221 54q195 0 302 -158q72 -105 72 -253q0 -73 -17 -156q-53 -254 -228.5 -412t-369.5 -158q-106 0 -197.5 53.5t-112.5 135.5l-116 -545h-166zM348 547q-14 -67 -14 -125q0 -103 45 -177q70 -116 209 -116t257 115.5 t156 302.5q14 69 15 128q0 101 -42 173q-67 115 -210 115q-139 0 -258 -116t-158 -300z" />
<glyph unicode="q" horiz-adv-x="1267" d="M90 547q53 252 229.5 409.5t370.5 157.5q106 0 196.5 -54t110.5 -142l37 174h168l-313 -1471h-168l117 545q-57 -82 -171 -135.5t-218 -53.5q-195 0 -304 158q-73 106 -72 255q-1 73 17 157zM266 547q-14 -67 -14 -126q0 -103 44 -176q69 -116 208 -116t257 115.5 t157 302.5q14 67 14 124q0 102 -44 176q-69 116 -208 116q-143 0 -259 -115t-155 -301z" />
<glyph unicode="r" horiz-adv-x="757" d="M68 0l231 1092h166l-35 -166q72 100 168 144t236 44l-33 -158q-362 0 -453 -409l-115 -547h-165z" />
<glyph unicode="s" horiz-adv-x="917" d="M-14 121l129 104q86 -104 243 -104q100 0 169 46t85 120q3 16 4 30q0 90 -131 138l-153 55q-192 68 -193 231q0 33 8 70q27 127 147 219t300 92q207 0 324 -149l-130 -107q-80 104 -227 105q-96 0 -159.5 -48.5t-77.5 -111.5q-4 -17 -4 -31q0 -34 20 -59q29 -35 102 -62 l152 -53q201 -75 201 -246q0 -35 -9 -73q-29 -133 -150.5 -225.5t-309.5 -92.5q-113 0 -203 44.5t-137 107.5z" />
<glyph unicode="t" horiz-adv-x="757" d="M131 948l31 144h213l65 311h166l-65 -311h252l-31 -144h-252l-143 -676q-5 -23 -6 -43q0 -100 141 -100q43 0 94 14l-29 -143q-51 -14 -139 -14q-135 0 -196 76q-44 56 -44 127q0 26 7 55l149 704h-213z" />
<glyph unicode="u" horiz-adv-x="1273" d="M152 395l147 697h166l-148 -697q-10 -45 -10 -83q0 -70 35 -114q53 -69 170 -69q145 0 259 108.5t155 309.5l116 545h166l-231 -1092h-166l37 182q-53 -92 -157.5 -148.5t-235.5 -56.5q-182 0 -264 113q-54 75 -53 185q0 55 14 120z" />
<glyph unicode="v" horiz-adv-x="1107" d="M131 1092h191l147 -918l551 918h188l-678 -1092h-196z" />
<glyph unicode="w" horiz-adv-x="1617" d="M162 1092h186l51 -895l441 895h172l59 -895l430 895h187l-553 -1092h-211l-56 825l-403 -825h-213z" />
<glyph unicode="x" horiz-adv-x="1091" d="M-53 0l506 561l-256 531h204l177 -394l346 394h206l-481 -531l269 -561h-201l-195 428l-377 -428h-198z" />
<glyph unicode="y" horiz-adv-x="1107" d="M-53 -379l30 143q47 -14 91 -14q55 0 93 15.5t52 31t31 41.5l90 148l-203 1106h191l147 -918l551 918h188l-823 -1321q-109 -166 -307 -166q-82 0 -131 16z" />
<glyph unicode="z" horiz-adv-x="925" d="M-25 0l29 143l705 805h-516l30 144h713l-31 -144l-700 -796h545l-31 -152h-744z" />
<glyph unicode="{" horiz-adv-x="729" d="M113 682l32 152h45q68 0 127.5 49t73.5 118l78 365q20 100 107.5 171t187.5 71h125l-29 -135h-102q-41 0 -75 -30t-44 -71l-80 -371q-20 -94 -96 -162.5t-168 -80.5q86 -10 134 -80t28 -162l-80 -373q-8 -41 14.5 -69.5t63.5 -28.5h102l-29 -135h-125q-100 0 -156.5 70.5 t-35.5 171.5l78 364q14 70 -24 118t-107 48h-45z" />
<glyph unicode="|" horiz-adv-x="653" d="M70 -379l403 1897h121l-404 -1897h-120z" />
<glyph unicode="}" horiz-adv-x="729" d="M-72 -90l29 135h102q41 0 77 28.5t44 69.5l80 373q20 92 97 162t165 80q-84 12 -132 81.5t-28 161.5l80 371q8 41 -15.5 71t-64.5 30h-102l29 135h127q100 0 155.5 -71t34.5 -171l-78 -365q-14 -70 25 -118.5t109 -48.5h45l-33 -152h-45q-70 0 -128.5 -48t-74.5 -118 l-78 -364q-23 -100 -107.5 -171t-185.5 -71h-127z" />
<glyph unicode="~" horiz-adv-x="868" d="M68 616l110 91q82 68 176.5 67.5t145.5 -67.5l18 -25q27 -29 70 -29q47 0 82 29l110 92l68 -86l-111 -90q-84 -68 -174 -68q-94 0 -147 68l-21 25q-25 31 -67.5 30.5t-81.5 -30.5l-111 -93z" />
<glyph unicode="&#xa1;" horiz-adv-x="575" d="M68 0l278 1139h137l-202 -1139h-213zM354 1319l43 199h197l-43 -199h-197z" />
<glyph unicode="&#xa2;" horiz-adv-x="1001" d="M135 758q47 223 203 377.5t350 183.5l43 199h90l-41 -191q182 -4 297 -141l-129 -107q-70 92 -198 97l-179 -834q127 0 240 96l84 -106q-166 -137 -356 -142l-39 -190h-90l41 197q-182 31 -272.5 185.5t-43.5 375.5zM311 758q-33 -152 15.5 -262.5t156.5 -143.5l172 813 q-123 -33 -217 -143t-127 -264z" />
<glyph unicode="&#xa3;" horiz-adv-x="1114" d="M-39 0l33 160h174l106 499h-174l21 99h174l74 350q41 186 183 309t335 123q98 0 174 -30.5t111.5 -63.5t78.5 -88l-141 -117q-33 43 -60.5 68.5t-79.5 48t-116 22.5q-109 0 -198 -80.5t-113 -191.5l-74 -350h258l-20 -99h-258l-107 -499h649l-33 -160h-997z" />
<glyph unicode="&#xa5;" horiz-adv-x="1230" d="M135 465l21 100h372l29 135h-373l21 99h307l-336 719h221l287 -656l565 656h219l-643 -719h308l-21 -99h-373l-28 -135h372l-20 -100h-373l-98 -465h-182l98 465h-373z" />
<glyph unicode="&#xa6;" horiz-adv-x="653" d="M135 -76l152 721h121l-152 -721h-121zM336 872l153 721h121l-153 -721h-121z" />
<glyph unicode="&#xa7;" horiz-adv-x="948" d="M16 121l129 104q80 -104 228 -104q96 0 160.5 48t78.5 112q20 100 -120 151l-152 55q-246 86 -195 318q29 129 142 219q-63 78 -35 205q27 127 145.5 219t298.5 92q203 0 326 -149l-129 -107q-84 104 -227 105q-96 0 -161 -48.5t-79 -111.5q-23 -100 119 -152l153 -55 q242 -86 195 -317q-29 -129 -141 -220q59 -78 34 -204q-29 -127 -147.5 -219.5t-298.5 -92.5q-205 0 -324 152zM322 805q-25 -113 129 -168l167 -62q80 47 99 130q23 115 -129 167l-170 62q-78 -47 -96 -129z" />
<glyph unicode="&#xa8;" horiz-adv-x="591" d="M209 1343l35 166h166l-35 -166h-166zM557 1343l35 166h166l-35 -166h-166z" />
<glyph unicode="&#xa9;" horiz-adv-x="1775" d="M174 758q68 315 337 537.5t583 222.5q315 0 490 -222.5t108 -537.5q-66 -313 -335.5 -535.5t-584.5 -222.5q-313 0 -488.5 222.5t-109.5 535.5zM258 758q-59 -279 95.5 -476.5t435 -197.5t520 196.5t299 477t-96 478.5t-436 198t-519.5 -197.5t-298 -478.5zM475 758 q47 227 208 371.5t370 144.5q184 0 276 -119l-94 -78q-72 92 -205 92q-152 0 -271.5 -112.5t-158.5 -298.5q-39 -184 33 -297t223 -113q133 0 244 92l61 -78q-145 -119 -327 -118q-209 0 -307.5 144.5t-51.5 369.5z" />
<glyph unicode="&#xaa;" horiz-adv-x="827" d="M190 963q23 102 121.5 172.5t272.5 70.5h133l16 78q12 59 -27.5 103.5t-115.5 44.5q-115 0 -205 -72l-59 74q131 104 286 104q133 0 195.5 -71.5t40.5 -182.5l-113 -526h-114l26 127q-35 -63 -106.5 -102.5t-159.5 -39.5q-98 0 -153.5 64t-37.5 156zM309 963 q-10 -51 20.5 -83t98.5 -32q98 0 170 72.5t86 138.5l10 47h-147q-102 0 -164 -43t-74 -100z" />
<glyph unicode="&#xab;" horiz-adv-x="909" d="M133 606l305 426h176l-305 -426l123 -424h-176zM453 606l305 426h174l-303 -426l121 -424h-175z" />
<glyph unicode="&#xad;" horiz-adv-x="675" d="M80 500l31 137h493l-31 -137h-493z" />
<glyph unicode="&#xae;" horiz-adv-x="1775" d="M174 758q68 315 337 537.5t583 222.5q315 0 490 -222.5t108 -537.5q-66 -313 -335.5 -535.5t-584.5 -222.5q-313 0 -488.5 222.5t-109.5 535.5zM258 758q-59 -279 95.5 -476.5t435 -197.5t520 196.5t299 477t-96 478.5t-436 198t-519.5 -197.5t-298 -478.5zM520 258 l213 1002h334q143 0 205.5 -70t40.5 -176q-18 -86 -82 -153.5t-150 -90.5q115 -10 115 -147l-6 -365h-127l6 344q0 113 -111 113h-221l-98 -457h-119zM760 819h180q92 0 157.5 47t84.5 127q31 162 -138 162h-215z" />
<glyph unicode="&#xaf;" horiz-adv-x="681" d="M287 1350l26 129h455l-27 -129h-454z" />
<glyph unicode="&#xb0;" horiz-adv-x="729" d="M225 1251q27 121 129.5 205t220.5 84q121 0 187.5 -85t40.5 -204q-25 -119 -127.5 -203.5t-222.5 -84.5q-119 0 -186 83.5t-42 204.5zM346 1251q-14 -70 25 -118t108.5 -48t128 48.5t72.5 117.5q16 70 -21.5 119t-107.5 49t-129.5 -49t-75.5 -119z" />
<glyph unicode="&#xb1;" horiz-adv-x="1138" d="M6 152l29 137h956l-28 -137h-957zM141 788l31 138h410l86 409h137l-86 -409h409l-30 -138h-410l-86 -409h-137l86 409h-410z" />
<glyph unicode="&#xb2;" horiz-adv-x="780" d="M68 506l20 94q330 270 452 400t146 243q14 76 -22.5 129t-116.5 53q-109 0 -221 -94l-62 78q143 121 305 121q137 0 203 -82t41 -205q-27 -121 -155 -260t-410 -371h461l-23 -106h-618z" />
<glyph unicode="&#xb3;" horiz-adv-x="864" d="M121 612l94 76q72 -92 184 -92q102 0 175 56.5t90 133.5q18 80 -31 137.5t-152 57.5h-106l22 104h107q92 0 157.5 48.5t81.5 121.5q16 72 -29.5 121t-138.5 49q-109 0 -221 -94l-61 78q143 121 305 121q147 0 221 -77t49 -198q-18 -88 -85.5 -147t-131.5 -76 q74 -20 114 -93t23 -153q-25 -121 -141.5 -209t-269.5 -88q-186 0 -256 123z" />
<glyph unicode="&#xb4;" horiz-adv-x="681" d="M291 1198l248 350h204l-321 -350h-131z" />
<glyph unicode="&#xb5;" horiz-adv-x="1273" d="M-14 -379l313 1471h166l-148 -697q-29 -129 24.5 -197.5t170.5 -68.5q145 0 259 108.5t155 309.5l116 545h166l-231 -1092h-166l37 182q-53 -92 -157.5 -148.5t-235.5 -56.5q-152 0 -209 84l-94 -440h-166z" />
<glyph unicode="&#x3bc;" horiz-adv-x="1273" d="M-14 -379l313 1471h166l-148 -697q-29 -129 24.5 -197.5t170.5 -68.5q145 0 259 108.5t155 309.5l116 545h166l-231 -1092h-166l37 182q-53 -92 -157.5 -148.5t-235.5 -56.5q-152 0 -209 84l-94 -440h-166z" />
<glyph unicode="&#xb6;" horiz-adv-x="1122" d="M180 1100q35 172 183.5 295t320.5 123h463l-404 -1897h-159l372 1751h-143l-373 -1751h-159l225 1061q-172 0 -267.5 123t-58.5 295z" />
<glyph unicode="&#xb7;" d="M158 508l43 197h198l-43 -197h-198z" />
<glyph unicode="&#xb8;" horiz-adv-x="712" d="M-47 -324l72 62q41 -41 102 -41q53 0 86 22.5t39 53.5q8 35 -27 57.5t-106 22.5l104 147h107l-58 -80q57 -8 90 -47t21 -100q-14 -61 -87 -110.5t-179 -49.5q-92 0 -164 63z" />
<glyph unicode="&#xb9;" horiz-adv-x="667" d="M250 1292l20 103q63 8 141 46t126 77h94l-215 -1012h-117l186 878q-85 -72 -235 -92z" />
<glyph unicode="&#xba;" horiz-adv-x="876" d="M217 1139q37 176 160 284.5t270.5 108.5t225 -108.5t40.5 -284.5q-39 -178 -161.5 -287t-270 -109t-225.5 109t-39 287zM340 1139q-29 -129 18.5 -210t143.5 -81t178 80t111 211q27 129 -18.5 208.5t-145.5 79.5q-96 0 -178 -79.5t-109 -208.5z" />
<glyph unicode="&#xbb;" horiz-adv-x="909" d="M4 182l303 424l-121 426h176l121 -426l-303 -424h-176zM324 182l301 424l-119 426h174l121 -426l-303 -424h-174z" />
<glyph unicode="&#xbc;" horiz-adv-x="1630" d="M66 -76l1341 1669h129l-1341 -1669h-129zM250 1292l20 103q63 8 141 46t126 77h94l-215 -1012h-117l186 878q-85 -72 -235 -92zM745 254l21 100l608 658h111l-139 -652h151l-22 -106h-152l-53 -254h-111l53 254h-467zM901 360h334l102 480z" />
<glyph unicode="&#xbd;" horiz-adv-x="1714" d="M66 -76l1341 1669h129l-1341 -1669h-129zM250 1292l20 103q63 8 141 46t126 77h94l-215 -1012h-117l186 878q-85 -72 -235 -92zM909 0l19 96q332 272 453.5 401.5t144.5 239.5q16 74 -20 128.5t-117 54.5q-111 0 -224 -93l-63 76q150 123 309 123q137 0 202.5 -82 t39.5 -207q-25 -119 -152 -257t-411 -374h460l-22 -106h-619z" />
<glyph unicode="&#xbe;" horiz-adv-x="1857" d="M121 612l94 76q72 -92 184 -92q102 0 175 56.5t90 133.5q18 80 -31 137.5t-152 57.5h-106l22 104h107q92 0 157.5 48.5t81.5 121.5q16 72 -29.5 121t-138.5 49q-109 0 -221 -94l-61 78q143 121 305 121q147 0 221 -77t49 -198q-18 -88 -85.5 -147t-131.5 -76 q74 -20 114 -93t23 -153q-25 -121 -141.5 -209t-269.5 -88q-186 0 -256 123zM293 -76l1341 1669h129l-1341 -1669h-129zM973 254l20 100l609 658h110l-139 -652h151l-22 -106h-152l-53 -254h-111l54 254h-467zM1128 360h334l103 480z" />
<glyph unicode="&#xbf;" horiz-adv-x="1038" d="M74 387q23 111 79 186.5t160 161.5l133 111q92 76 129 132t60 161h168q-49 -225 -219 -363l-135 -112q-82 -68 -124 -125.5t-63 -151.5q-20 -98 40 -174t173 -76q166 0 330 139l92 -116q-225 -182 -457 -183q-197 0 -300 120t-66 290zM657 1319l43 199h197l-43 -199h-197 z" />
<glyph unicode="&#xc0;" horiz-adv-x="1335" d="M-106 0l882 1518h197l239 -1518h-196l-58 387h-649l-219 -387h-196zM399 547h537l-109 751zM748 1933h204l103 -348h-131z" />
<glyph unicode="&#xc1;" horiz-adv-x="1335" d="M-106 0l882 1518h197l239 -1518h-196l-58 387h-649l-219 -387h-196zM399 547h537l-109 751zM715 1585l248 348h204l-323 -348h-129z" />
<glyph unicode="&#xc2;" horiz-adv-x="1335" d="M-106 0l882 1518h197l239 -1518h-196l-58 387h-649l-219 -387h-196zM399 547h537l-109 751zM600 1585l270 348h183l125 -348h-162l-80 219l-174 -219h-162z" />
<glyph unicode="&#xc3;" horiz-adv-x="1335" d="M-106 0l882 1518h197l239 -1518h-196l-58 387h-649l-219 -387h-196zM399 547h537l-109 751zM545 1599q20 96 100 163t174 67q92 0 146 -68l20 -24q25 -31 68 -31t80.5 31.5t48.5 74.5h121q-20 -94 -101.5 -160.5t-175.5 -66.5t-145 68l-19 24q-23 29 -67.5 29 t-82.5 -30.5t-46 -76.5h-121z" />
<glyph unicode="&#xc4;" horiz-adv-x="1335" d="M-106 0l882 1518h197l239 -1518h-196l-58 387h-649l-219 -387h-196zM399 547h537l-109 751zM651 1683l37 168h166l-37 -168h-166zM999 1683l37 168h168l-37 -168h-168z" />
<glyph unicode="&#xc5;" horiz-adv-x="1335" d="M-106 0l882 1518h197l239 -1518h-196l-58 387h-649l-219 -387h-196zM399 547h537l-109 751zM756 1745q14 68 73.5 117t128.5 49q68 0 107 -49.5t25 -116.5q-14 -70 -75 -119t-128 -49q-70 0 -107.5 49t-23.5 119zM809 1745q-10 -47 16.5 -81t73.5 -34t87 34t50 81 q8 45 -18.5 79t-71.5 34q-47 0 -88 -34t-49 -79z" />
<glyph unicode="&#xc6;" horiz-adv-x="1775" d="M-244 0l1225 1518h864l-35 -160h-591l-107 -508h578l-35 -160h-578l-112 -530h606l-33 -160h-788l81 387h-563l-307 -387h-205zM393 547h471l172 811z" />
<glyph unicode="&#xc7;" horiz-adv-x="1318" d="M143 758q74 346 314.5 564t558.5 218q279 0 422 -182l-142 -117q-59 74 -131.5 106.5t-181.5 32.5q-227 0 -407.5 -170t-241.5 -452q-59 -281 49.5 -451t335.5 -170q205 0 373 139l92 -116q-213 -176 -482 -183l-40 -57q57 -8 90.5 -47t21.5 -100q-14 -61 -88 -110.5 t-180 -49.5q-88 0 -164 63l74 62q41 -41 102 -41q51 0 84 22.5t39 53.5q8 35 -25.5 57.5t-107.5 22.5l92 129q-276 31 -400.5 244t-56.5 532z" />
<glyph unicode="&#xc8;" horiz-adv-x="1107" d="M82 0l321 1518h775l-35 -160h-592l-107 -508h578l-35 -160h-577l-113 -530h606l-33 -160h-788zM674 1933h205l100 -348h-129z" />
<glyph unicode="&#xc9;" horiz-adv-x="1107" d="M82 0l321 1518h775l-35 -160h-592l-107 -508h578l-35 -160h-577l-113 -530h606l-33 -160h-788zM676 1585l248 348h204l-321 -348h-131z" />
<glyph unicode="&#xca;" horiz-adv-x="1107" d="M82 0l321 1518h775l-35 -160h-592l-107 -508h578l-35 -160h-577l-113 -530h606l-33 -160h-788zM524 1585l271 348h182l125 -348h-162l-80 219l-174 -219h-162z" />
<glyph unicode="&#xcb;" horiz-adv-x="1107" d="M82 0l321 1518h775l-35 -160h-592l-107 -508h578l-35 -160h-577l-113 -530h606l-33 -160h-788zM584 1683l37 168h165l-36 -168h-166zM932 1683l37 168h168l-37 -168h-168z" />
<glyph unicode="&#xcc;" horiz-adv-x="575" d="M82 0l321 1518h183l-322 -1518h-182zM334 1933h205l100 -348h-131z" />
<glyph unicode="&#xcd;" horiz-adv-x="575" d="M82 0l321 1518h183l-322 -1518h-182zM381 1585l248 348h205l-324 -348h-129z" />
<glyph unicode="&#xce;" horiz-adv-x="575" d="M82 0l321 1518h183l-322 -1518h-182zM221 1585l271 348h182l123 -348h-160l-80 219l-174 -219h-162z" />
<glyph unicode="&#xcf;" horiz-adv-x="575" d="M82 0l321 1518h183l-322 -1518h-182zM272 1683l37 168h166l-37 -168h-166zM621 1683l36 168h168l-37 -168h-167z" />
<glyph unicode="&#xd0;" horiz-adv-x="1472" d="M70 690l28 137h158l147 691h404q336 0 512 -197t98 -563q-78 -362 -341 -560t-591 -198h-403l145 690h-157zM297 160h221q254 0 451.5 152.5t259.5 445.5q63 293 -70 446.5t-387 153.5h-221l-113 -531h160l-29 -137h-159z" />
<glyph unicode="&#xd1;" horiz-adv-x="1472" d="M82 0l321 1518h259l366 -1274l270 1274h183l-324 -1520h-258l-364 1276l-271 -1274h-182zM604 1599q20 94 100 162t174.5 68t147.5 -68l21 -24q25 -31 67.5 -31t80.5 31.5t48 74.5h121q-20 -94 -101 -160.5t-175.5 -66.5t-147.5 68l-16 24q-27 29 -70 29q-45 0 -83 -30.5 t-46 -76.5h-121z" />
<glyph unicode="&#xd2;" horiz-adv-x="1548" d="M143 758q74 342 309.5 562t532.5 220q295 0 438.5 -220t69.5 -562q-72 -342 -308.5 -561.5t-531.5 -219.5q-297 0 -439.5 219.5t-70.5 561.5zM333.5 757.5q-59.5 -278.5 45 -449.5t309.5 -171t381 172t236 449q59 279 -44.5 450.5t-308 171.5t-382 -172t-237 -450.5z M754 1933h204l103 -348h-131z" />
<glyph unicode="&#xd3;" horiz-adv-x="1548" d="M143 758q74 342 309.5 562t532.5 220q295 0 438.5 -220t69.5 -562q-72 -342 -308.5 -561.5t-531.5 -219.5q-297 0 -439.5 219.5t-70.5 561.5zM333.5 757.5q-59.5 -278.5 45 -449.5t309.5 -171t381 172t236 449q59 279 -44.5 450.5t-308 171.5t-382 -172t-237 -450.5z M926 1585l250 348h204l-323 -348h-131z" />
<glyph unicode="&#xd4;" horiz-adv-x="1548" d="M143 758q74 342 309.5 562t532.5 220q295 0 438.5 -220t69.5 -562q-72 -342 -308.5 -561.5t-531.5 -219.5q-297 0 -439.5 219.5t-70.5 561.5zM333.5 757.5q-59.5 -278.5 45 -449.5t309.5 -171t381 172t236 449q59 279 -44.5 450.5t-308 171.5t-382 -172t-237 -450.5z M707 1585l270 348h182l125 -348h-162l-80 219l-174 -219h-161z" />
<glyph unicode="&#xd5;" horiz-adv-x="1548" d="M143 758q74 342 309.5 562t532.5 220q295 0 438.5 -220t69.5 -562q-72 -342 -308.5 -561.5t-531.5 -219.5q-297 0 -439.5 219.5t-70.5 561.5zM333.5 757.5q-59.5 -278.5 45 -449.5t309.5 -171t381 172t236 449q59 279 -44.5 450.5t-308 171.5t-382 -172t-237 -450.5z M641 1599q20 94 100 162t174.5 68t147.5 -68l18 -24q29 -31 70 -31q43 0 81 31.5t48 74.5h121q-20 -94 -101 -160.5t-176 -66.5q-96 0 -147 68l-19 24q-23 29 -67.5 29t-82.5 -30.5t-46 -76.5h-121z" />
<glyph unicode="&#xd6;" horiz-adv-x="1548" d="M143 758q74 342 309.5 562t532.5 220q295 0 438.5 -220t69.5 -562q-72 -342 -308.5 -561.5t-531.5 -219.5q-297 0 -439.5 219.5t-70.5 561.5zM333.5 757.5q-59.5 -278.5 45 -449.5t309.5 -171t381 172t236 449q59 279 -44.5 450.5t-308 171.5t-382 -172t-237 -450.5z M758 1683l37 168h166l-37 -168h-166zM1106 1683l37 168h168l-37 -168h-168z" />
<glyph unicode="&#xd7;" horiz-adv-x="1138" d="M117 416l397 327l-258 328l119 96l258 -327l397 327l76 -96l-397 -328l258 -327l-117 -97l-258 328l-397 -328z" />
<glyph unicode="&#xd8;" horiz-adv-x="1548" d="M20 -76l213 244q-168 221 -90 590q74 342 309.5 562t532.5 220q209 0 348 -117l150 170h135l-213 -243q166 -223 88 -592q-72 -342 -308.5 -561.5t-531.5 -219.5q-205 0 -348 117l-147 -170h-138zM334 758q-55 -268 37 -434l835 954q-102 102 -254 102 q-205 0 -382 -171.5t-236 -450.5zM430 238q100 -100 258 -101q205 0 381 172t236 449q55 260 -37 436z" />
<glyph unicode="&#xd9;" horiz-adv-x="1456" d="M180 463l223 1055h183l-224 -1055q-35 -160 44 -247t235 -87q154 0 269.5 87t150.5 247l223 1055h182l-223 -1055q-53 -244 -229 -369t-407.5 -125t-355.5 125t-71 369zM758 1933h205l100 -348h-131z" />
<glyph unicode="&#xda;" horiz-adv-x="1456" d="M180 463l223 1055h183l-224 -1055q-35 -160 44 -247t235 -87q154 0 269.5 87t150.5 247l223 1055h182l-223 -1055q-53 -244 -229 -369t-407.5 -125t-355.5 125t-71 369zM844 1585l248 348h204l-323 -348h-129z" />
<glyph unicode="&#xdb;" horiz-adv-x="1456" d="M180 463l223 1055h183l-224 -1055q-35 -160 44 -247t235 -87q154 0 269.5 87t150.5 247l223 1055h182l-223 -1055q-53 -244 -229 -369t-407.5 -125t-355.5 125t-71 369zM662 1585l270 348h182l123 -348h-160l-80 219l-176 -219h-159z" />
<glyph unicode="&#xdc;" horiz-adv-x="1456" d="M180 463l223 1055h183l-224 -1055q-35 -160 44 -247t235 -87q154 0 269.5 87t150.5 247l223 1055h182l-223 -1055q-53 -244 -229 -369t-407.5 -125t-355.5 125t-71 369zM713 1683l37 168h165l-36 -168h-166zM1061 1683l37 168h166l-37 -168h-166z" />
<glyph unicode="&#xdd;" horiz-adv-x="1140" d="M131 1518h219l289 -656l565 656h219l-729 -818l-147 -700h-182l147 700zM637 1585l248 348h205l-322 -348h-131z" />
<glyph unicode="&#xde;" horiz-adv-x="1214" d="M82 0l321 1518h183l-70 -330h289q223 0 328.5 -121t64.5 -307q-41 -193 -195.5 -311.5t-379.5 -118.5h-289l-70 -330h-182zM367 489h288q141 0 233.5 75t119 194t-35 194.5t-202.5 75.5h-289z" />
<glyph unicode="&#xdf;" horiz-adv-x="1214" d="M68 0l237 1126q41 186 180.5 300t331.5 114q195 0 287 -112.5t53 -294.5q-27 -129 -119 -216.5t-174 -117.5q119 -35 175.5 -135.5t27.5 -231.5q-41 -195 -199.5 -325t-388.5 -130q-76 0 -133 15l31 145q45 -16 102 -16q160 0 264.5 86t133.5 217q29 129 -36 217t-218 88 h-121l30 143h138q115 0 201.5 76t111.5 184.5t-30.5 185.5t-166 77t-199.5 -77t-114 -185l-240 -1133h-165z" />
<glyph unicode="&#xe0;" horiz-adv-x="1153" d="M68 295q31 145 172 247.5t395 102.5h190l25 113q18 86 -39 149.5t-168 63.5q-166 0 -295 -105l-84 107q182 150 412 149q190 0 282.5 -102t57.5 -262l-160 -758h-166l37 182q-51 -92 -154.5 -148.5t-230.5 -56.5q-143 0 -223 92.5t-51 225.5zM242 295q-16 -76 28.5 -121 t141.5 -45q143 0 245.5 104.5t122.5 198.5l15 68h-213q-147 0 -234.5 -61.5t-105.5 -143.5zM547 1548h205l100 -350h-131z" />
<glyph unicode="&#xe1;" horiz-adv-x="1153" d="M68 295q31 145 172 247.5t395 102.5h190l25 113q18 86 -39 149.5t-168 63.5q-166 0 -295 -105l-84 107q182 150 412 149q190 0 282.5 -102t57.5 -262l-160 -758h-166l37 182q-51 -92 -154.5 -148.5t-230.5 -56.5q-143 0 -223 92.5t-51 225.5zM242 295q-16 -76 28.5 -121 t141.5 -45q143 0 245.5 104.5t122.5 198.5l15 68h-213q-147 0 -234.5 -61.5t-105.5 -143.5zM563 1198l250 350h205l-324 -350h-131z" />
<glyph unicode="&#xe2;" horiz-adv-x="1153" d="M68 295q31 145 172 247.5t395 102.5h190l25 113q18 86 -39 149.5t-168 63.5q-166 0 -295 -105l-84 107q182 150 412 149q190 0 282.5 -102t57.5 -262l-160 -758h-166l37 182q-51 -92 -154.5 -148.5t-230.5 -56.5q-143 0 -223 92.5t-51 225.5zM242 295q-16 -76 28.5 -121 t141.5 -45q143 0 245.5 104.5t122.5 198.5l15 68h-213q-147 0 -234.5 -61.5t-105.5 -143.5zM412 1198l272 350h182l123 -350h-162l-79 219l-175 -219h-161z" />
<glyph unicode="&#xe3;" horiz-adv-x="1153" d="M68 295q31 145 172 247.5t395 102.5h190l25 113q18 86 -39 149.5t-168 63.5q-166 0 -295 -105l-84 107q182 150 412 149q190 0 282.5 -102t57.5 -262l-160 -758h-166l37 182q-51 -92 -154.5 -148.5t-230.5 -56.5q-143 0 -223 92.5t-51 225.5zM242 295q-16 -76 28.5 -121 t141.5 -45q143 0 245.5 104.5t122.5 198.5l15 68h-213q-147 0 -234.5 -61.5t-105.5 -143.5zM360 1286q20 94 100.5 160.5t176.5 66.5q92 0 145 -65l19 -25q23 -31 67 -30q43 0 81 31.5t48 74.5h121q-20 -94 -100 -160.5t-176 -66.5q-94 0 -146 65l-18 25q-23 31 -68 31 t-81.5 -32t-47.5 -75h-121z" />
<glyph unicode="&#xe4;" horiz-adv-x="1153" d="M68 295q31 145 172 247.5t395 102.5h190l25 113q18 86 -39 149.5t-168 63.5q-166 0 -295 -105l-84 107q182 150 412 149q190 0 282.5 -102t57.5 -262l-160 -758h-166l37 182q-51 -92 -154.5 -148.5t-230.5 -56.5q-143 0 -223 92.5t-51 225.5zM242 295q-16 -76 28.5 -121 t141.5 -45q143 0 245.5 104.5t122.5 198.5l15 68h-213q-147 0 -234.5 -61.5t-105.5 -143.5zM473 1343l35 166h168l-35 -166h-168zM823 1343l35 166h166l-35 -166h-166z" />
<glyph unicode="&#xe5;" horiz-adv-x="1153" d="M68 295q31 145 172 247.5t395 102.5h190l25 113q18 86 -39 149.5t-168 63.5q-166 0 -295 -105l-84 107q182 150 412 149q190 0 282.5 -102t57.5 -262l-160 -758h-166l37 182q-51 -92 -154.5 -148.5t-230.5 -56.5q-143 0 -223 92.5t-51 225.5zM242 295q-16 -76 28.5 -121 t141.5 -45q143 0 245.5 104.5t122.5 198.5l15 68h-213q-147 0 -234.5 -61.5t-105.5 -143.5zM557 1380.5q14 69.5 73.5 118.5t129 49t107.5 -49t24 -119q-16 -70 -73.5 -118t-127.5 -48q-72 0 -109.5 48.5t-23.5 118zM610 1380q-10 -45 16.5 -78.5t73.5 -33.5q45 0 86 32.5 t51.5 79.5t-16 81t-71.5 34q-47 0 -88.5 -34t-51.5 -81z" />
<glyph unicode="&#xe6;" horiz-adv-x="1828" d="M68 295q31 145 172 247.5t395 102.5h190l25 113q18 86 -39 149.5t-168 63.5q-166 0 -295 -105l-84 107q182 150 412 149q133 0 217 -49t111 -139q174 180 391 180q201 0 303 -153.5t37 -466.5h-772q-18 -162 53 -263.5t223 -101.5q154 0 270 96l84 -104 q-170 -143 -387 -144q-299 0 -387 254q-72 -113 -196.5 -183.5t-280.5 -70.5q-143 0 -223 92.5t-51 225.5zM242 295q-16 -76 28.5 -121t141.5 -45q143 0 245.5 104.5t122.5 198.5l15 68h-213q-147 0 -234.5 -61.5t-105.5 -143.5zM1001 645h574q14 137 -44 227.5t-169 90.5 q-113 0 -214.5 -90.5t-146.5 -227.5z" />
<glyph unicode="&#xe7;" horiz-adv-x="1001" d="M90 547q53 248 236.5 407.5t400.5 159.5q90 0 172 -38t131 -103l-129 -107q-70 96 -207 97q-147 0 -268 -118t-160 -298q-39 -182 33 -300t219 -118q131 0 248 96l84 -104q-166 -139 -352 -144l-41 -57q57 -8 91 -47t21 -100q-14 -61 -87.5 -110.5t-180.5 -49.5 q-88 0 -164 63l74 62q41 -41 102 -41q51 0 84 22.5t39 53.5q8 35 -25.5 57.5t-107.5 22.5l94 133q-180 33 -267 186.5t-40 374.5z" />
<glyph unicode="&#xe8;" horiz-adv-x="1122" d="M90 547q53 248 225 407.5t375 159.5q199 0 301.5 -154.5t36.5 -465.5h-772q-18 -164 53.5 -264.5t225.5 -100.5q150 0 270 96l84 -104q-174 -143 -387 -144q-229 0 -346 160t-66 410zM295 645h575q12 139 -45 228.5t-168 89.5q-113 0 -215 -90.5t-147 -227.5zM539 1548 h204l101 -350h-129z" />
<glyph unicode="&#xe9;" horiz-adv-x="1122" d="M90 547q53 248 225 407.5t375 159.5q199 0 301.5 -154.5t36.5 -465.5h-772q-18 -164 53.5 -264.5t225.5 -100.5q150 0 270 96l84 -104q-174 -143 -387 -144q-229 0 -346 160t-66 410zM295 645h575q12 139 -45 228.5t-168 89.5q-113 0 -215 -90.5t-147 -227.5zM580 1198 l247 350h205l-321 -350h-131z" />
<glyph unicode="&#xea;" horiz-adv-x="1122" d="M90 547q53 248 225 407.5t375 159.5q199 0 301.5 -154.5t36.5 -465.5h-772q-18 -164 53.5 -264.5t225.5 -100.5q150 0 270 96l84 -104q-174 -143 -387 -144q-229 0 -346 160t-66 410zM295 645h575q12 139 -45 228.5t-168 89.5q-113 0 -215 -90.5t-147 -227.5zM412 1198 l272 350h182l123 -350h-162l-79 219l-175 -219h-161z" />
<glyph unicode="&#xeb;" horiz-adv-x="1122" d="M90 547q53 248 225 407.5t375 159.5q199 0 301.5 -154.5t36.5 -465.5h-772q-18 -164 53.5 -264.5t225.5 -100.5q150 0 270 96l84 -104q-174 -143 -387 -144q-229 0 -346 160t-66 410zM295 645h575q12 139 -45 228.5t-168 89.5q-113 0 -215 -90.5t-147 -227.5zM481 1343 l35 166h166l-35 -166h-166zM829 1343l35 166h168l-35 -166h-168z" />
<glyph unicode="&#xec;" d="M68 0l231 1092h166l-232 -1092h-165zM199 1548h204l101 -350h-131z" />
<glyph unicode="&#xed;" d="M68 0l231 1092h166l-232 -1092h-165zM305 1198l250 350h205l-324 -350h-131z" />
<glyph unicode="&#xee;" d="M68 0l231 1092h166l-232 -1092h-165zM117 1198l270 350h182l123 -350h-160l-79 219l-177 -219h-159z" />
<glyph unicode="&#xef;" d="M68 0l231 1092h166l-232 -1092h-165zM178 1343l35 166h166l-35 -166h-166zM526 1343l35 166h168l-35 -166h-168z" />
<glyph unicode="&#xf0;" horiz-adv-x="1335" d="M104 471q43 201 220.5 346.5t408.5 145.5q133 0 221 -67t107 -138q63 295 -6 454l-152 -125l-74 97l156 129q-80 68 -207 67q-178 0 -346 -139l-94 117q223 182 473 182q201 0 319 -108l127 104l76 -94l-127 -105q117 -209 37 -579q-74 -352 -259 -566.5t-460 -214.5 q-233 0 -348 141.5t-72 352.5zM295 471q-29 -135 42 -234.5t222.5 -99.5t263 99.5t140.5 234.5q29 133 -40 233.5t-221 100.5q-154 0 -265 -100.5t-142 -233.5z" />
<glyph unicode="&#xf1;" horiz-adv-x="1273" d="M68 0l231 1092h166l-39 -183q53 92 157.5 148.5t235.5 56.5q182 0 264 -111.5t41 -304.5l-147 -698h-166l147 698q27 129 -25 197t-169 68q-147 0 -260 -109t-156 -307l-115 -547h-165zM446 1286q20 94 100.5 160.5t176.5 66.5q94 0 145 -65l19 -25q25 -31 69 -30 q43 0 80 31.5t47 74.5h123q-20 -94 -101 -160.5t-175 -66.5q-96 0 -148 65l-18 25q-23 31 -68 31t-81.5 -32t-47.5 -75h-121z" />
<glyph unicode="&#xf2;" horiz-adv-x="1183" d="M90 547q53 254 232.5 410.5t390.5 156.5t321.5 -156.5t57.5 -410.5q-53 -256 -231.5 -413t-389.5 -157t-322.5 157t-58.5 413zM266 547q-39 -186 30 -302t208 -116t257 115.5t156.5 302t-28 301.5t-209.5 115q-139 0 -257 -116t-157 -300zM555 1548h205l102 -350h-131z " />
<glyph unicode="&#xf3;" horiz-adv-x="1183" d="M90 547q53 254 232.5 410.5t390.5 156.5t321.5 -156.5t57.5 -410.5q-53 -256 -231.5 -413t-389.5 -157t-322.5 157t-58.5 413zM266 547q-39 -186 30 -302t208 -116t257 115.5t156.5 302t-28 301.5t-209.5 115q-139 0 -257 -116t-157 -300zM600 1198l248 350h205 l-322 -350h-131z" />
<glyph unicode="&#xf4;" horiz-adv-x="1183" d="M90 547q53 254 232.5 410.5t390.5 156.5t321.5 -156.5t57.5 -410.5q-53 -256 -231.5 -413t-389.5 -157t-322.5 157t-58.5 413zM266 547q-39 -186 30 -302t208 -116t257 115.5t156.5 302t-28 301.5t-209.5 115q-139 0 -257 -116t-157 -300zM442 1198l271 350h182l125 -350 h-162l-80 219l-174 -219h-162z" />
<glyph unicode="&#xf5;" horiz-adv-x="1183" d="M90 547q53 254 232.5 410.5t390.5 156.5t321.5 -156.5t57.5 -410.5q-53 -256 -231.5 -413t-389.5 -157t-322.5 157t-58.5 413zM266 547q-39 -186 30 -302t208 -116t257 115.5t156.5 302t-28 301.5t-209.5 115q-139 0 -257 -116t-157 -300zM391 1286q20 94 101 160.5 t175.5 66.5t147.5 -65l19 -25q23 -31 67 -30q43 0 81 31.5t48 74.5h121q-20 -94 -101 -160.5t-176 -66.5q-92 0 -147 65l-18 25q-23 31 -68 31t-82 -32t-47 -75h-121z" />
<glyph unicode="&#xf6;" horiz-adv-x="1183" d="M90 547q53 254 232.5 410.5t390.5 156.5t321.5 -156.5t57.5 -410.5q-53 -256 -231.5 -413t-389.5 -157t-322.5 157t-58.5 413zM266 547q-39 -186 30 -302t208 -116t257 115.5t156.5 302t-28 301.5t-209.5 115q-139 0 -257 -116t-157 -300zM504 1343l35 166h166l-35 -166 h-166zM852 1343l35 166h168l-35 -166h-168z" />
<glyph unicode="&#xf8;" horiz-adv-x="1183" d="M12 -76l156 185q-135 158 -78 438q53 254 232.5 410.5t390.5 156.5q143 0 239 -72l107 125h112l-155 -184q135 -162 76 -436q-53 -256 -231.5 -413t-389.5 -157q-139 0 -240 72l-104 -125h-115zM266 547q-37 -176 25 -293l551 655q-66 53 -162 54q-139 0 -257 -116 t-157 -300zM346 184q66 -55 158 -55q139 0 257 115.5t157 302.5q39 176 -21 293z" />
<glyph unicode="&#xf9;" horiz-adv-x="1273" d="M152 395l147 697h166l-148 -697q-29 -129 24.5 -197.5t170.5 -68.5q145 0 259 108.5t155 309.5l116 545h166l-231 -1092h-166l37 182q-53 -92 -157.5 -148.5t-235.5 -56.5q-182 0 -263 112.5t-40 305.5zM555 1548h205l100 -350h-131z" />
<glyph unicode="&#xfa;" horiz-adv-x="1273" d="M152 395l147 697h166l-148 -697q-29 -129 24.5 -197.5t170.5 -68.5q145 0 259 108.5t155 309.5l116 545h166l-231 -1092h-166l37 182q-53 -92 -157.5 -148.5t-235.5 -56.5q-182 0 -263 112.5t-40 305.5zM653 1198l248 350h205l-322 -350h-131z" />
<glyph unicode="&#xfb;" horiz-adv-x="1273" d="M152 395l147 697h166l-148 -697q-29 -129 24.5 -197.5t170.5 -68.5q145 0 259 108.5t155 309.5l116 545h166l-231 -1092h-166l37 182q-53 -92 -157.5 -148.5t-235.5 -56.5q-182 0 -263 112.5t-40 305.5zM487 1198l273 350h182l123 -350h-162l-80 219l-174 -219h-162z" />
<glyph unicode="&#xfc;" horiz-adv-x="1273" d="M152 395l147 697h166l-148 -697q-29 -129 24.5 -197.5t170.5 -68.5q145 0 259 108.5t155 309.5l116 545h166l-231 -1092h-166l37 182q-53 -92 -157.5 -148.5t-235.5 -56.5q-182 0 -263 112.5t-40 305.5zM541 1343l34 166h168l-34 -166h-168zM891 1343l35 166h166 l-35 -166h-166z" />
<glyph unicode="&#xfd;" horiz-adv-x="1107" d="M-53 -379l30 143q47 -14 91 -14q55 0 93 15.5t52 31t31 41.5l90 148l-203 1106h191l147 -918l551 918h188l-823 -1321q-109 -166 -307 -166q-82 0 -131 16zM524 1198l248 350h205l-322 -350h-131z" />
<glyph unicode="&#xfe;" horiz-adv-x="1267" d="M-14 -379l403 1897h166l-119 -555q57 88 171 143t222 55q197 0 302.5 -161.5t50.5 -430.5q-57 -268 -232.5 -430t-371.5 -162q-106 0 -197.5 53.5t-112.5 135.5l-116 -545h-166zM354 569q-43 -201 24.5 -320.5t209 -119.5t259.5 120t161 320.5t-23.5 320.5t-210.5 120 q-141 0 -259 -121t-161 -320z" />
<glyph unicode="&#xff;" horiz-adv-x="1107" d="M-53 -379l30 143q47 -14 91 -14q55 0 93 15.5t52 31t31 41.5l90 148l-203 1106h191l147 -918l551 918h188l-823 -1321q-109 -166 -307 -166q-82 0 -131 16zM465 1343l35 166h168l-35 -166h-168zM815 1343l35 166h166l-35 -166h-166z" />
<glyph unicode="&#x152;" horiz-adv-x="2168" d="M143 758q74 342 309.5 562t532.5 220q317 0 434 -244l47 222h775l-35 -160h-592l-107 -508h576l-35 -160h-575l-113 -530h606l-33 -160h-788l45 219q-225 -242 -537 -242q-297 0 -439.5 219.5t-70.5 561.5zM333.5 757.5q-59.5 -278.5 45 -449.5t309.5 -171t381 172 t236 449q59 279 -44.5 450.5t-308 171.5t-382 -172t-237 -450.5z" />
<glyph unicode="&#x153;" horiz-adv-x="1949" d="M90 547q53 254 232.5 410.5t390.5 156.5q131 0 229 -64.5t131 -175.5q82 111 201 175.5t242 64.5q201 0 303 -153.5t36 -466.5h-772q-18 -162 53.5 -263.5t223 -101.5t272.5 96l82 -104q-170 -143 -387 -144q-141 0 -242.5 66t-144.5 182q-88 -117 -212 -182.5 t-257 -65.5q-211 0 -322.5 157t-58.5 413zM266 547q-39 -186 30 -302t208 -116t257 115.5t156.5 302t-28 301.5t-209.5 115q-139 0 -257 -116t-157 -300zM1122 645h576q12 139 -45.5 228.5t-170 89.5t-214 -90.5t-146.5 -227.5z" />
<glyph unicode="&#x178;" horiz-adv-x="1140" d="M131 1518h219l289 -656l565 656h219l-729 -818l-147 -700h-182l147 700zM547 1647l37 165h166l-37 -165h-166zM895 1647l37 165h166l-37 -165h-166z" />
<glyph unicode="&#x2c6;" horiz-adv-x="681" d="M193 1198l270 350h182l123 -350h-160l-80 219l-176 -219h-159z" />
<glyph unicode="&#x2dc;" horiz-adv-x="866" d="M233 1286q20 94 101.5 160.5t175.5 66.5t147 -65l19 -25q23 -31 67 -30q43 0 81 31.5t48 74.5h121q-20 -94 -101 -160.5t-175 -66.5q-92 0 -148 65l-18 25q-23 31 -68 31t-81.5 -32t-47.5 -75h-121z" />
<glyph unicode="&#x2013;" horiz-adv-x="1273" d="M80 500l31 137h1093l-30 -137h-1094z" />
<glyph unicode="&#x2014;" horiz-adv-x="1851" d="M80 500l31 137h1669l-31 -137h-1669z" />
<glyph unicode="&#x2018;" d="M252 1124l215 394h129l-139 -394h-205z" />
<glyph unicode="&#x2019;" d="M264 1124l139 394h205l-213 -394h-131z" />
<glyph unicode="&#x201a;" d="M-33 -197l142 394h204l-215 -394h-131z" />
<glyph unicode="&#x201c;" horiz-adv-x="864" d="M252 1124l215 394h129l-139 -394h-205zM586 1124l215 394h129l-139 -394h-205z" />
<glyph unicode="&#x201d;" horiz-adv-x="864" d="M264 1124l139 394h205l-213 -394h-131zM598 1124l139 394h205l-213 -394h-131z" />
<glyph unicode="&#x201e;" horiz-adv-x="864" d="M-33 -197l142 394h204l-215 -394h-131zM301 -197l141 394h205l-215 -394h-131z" />
<glyph unicode="&#x2022;" horiz-adv-x="622" d="M164 606q16 66 72.5 113t122 47t102.5 -47t22.5 -112.5t-71 -111.5t-122 -46t-103 45.5t-23.5 111.5z" />
<glyph unicode="&#x2026;" horiz-adv-x="1122" d="M51 0l41 197h199l-41 -197h-199zM348 0l41 197h197l-41 -197h-197zM643 0l41 197h199l-41 -197h-199z" />
<glyph unicode="&#x2039;" horiz-adv-x="591" d="M133 606l305 426h176l-305 -426l123 -424h-176z" />
<glyph unicode="&#x203a;" horiz-adv-x="591" d="M4 182l303 424l-121 426h176l121 -426l-303 -424h-176z" />
<glyph unicode="&#x20ac;" horiz-adv-x="1349" d="M10 592l21 98h131l12 68q2 10 7 33.5t9 35.5h-131l23 99h141q106 279 326.5 446.5t494.5 167.5q281 0 424 -182l-141 -117q-59 74 -132 106.5t-183 32.5q-188 0 -349 -121.5t-247 -332.5h622l-22 -99h-635q-4 -12 -9 -35.5t-7 -33.5q-2 -8 -5.5 -21.5t-5.5 -25t-2 -21.5 h635l-20 -98h-623q-2 -211 106.5 -333t297.5 -122q207 0 374 139l92 -116q-221 -182 -501 -183q-274 0 -424 168t-137 447h-142z" />
<glyph unicode="&#x2122;" horiz-adv-x="845" d="M236 1470l10 48h280l-10 -48h-108l-70 -331h-57l69 331h-114zM494 1139l79 379h91l34 -312l166 312h90l-80 -379h-57l66 309l-168 -309h-64l-35 309l-65 -309h-57z" />
<glyph unicode="&#xe000;" horiz-adv-x="1090" d="M0 1090h1090v-1090h-1090v1090z" />
<glyph unicode="&#xfb01;" horiz-adv-x="1290" d="M131 948l31 144h213l39 182q23 104 115 181t227 77q76 0 133 -14l-31 -146q-43 16 -88 17q-168 0 -197 -146l-32 -151h252l-31 -144h-252l-201 -948h-166l201 948h-213zM825 0l232 1092h168l-232 -1092h-168zM1102 1335l39 183h180l-39 -183h-180z" />
<glyph unicode="&#xfb02;" horiz-adv-x="1290" d="M131 948l31 144h213l39 182q23 104 115 181t227 77q76 0 133 -14l-31 -146q-43 16 -88 17q-168 0 -197 -146l-32 -151h252l-31 -144h-252l-201 -948h-166l201 948h-213zM825 0l322 1518h168l-322 -1518h-168z" />
<glyph unicode="&#xfb03;" horiz-adv-x="2045" d="M1584 0l231 1092h166l-232 -1092h-165zM1858 1335l39 183h182l-39 -183h-182zM889 948l31 144h213l39 182q23 104 115 181t227 77q76 0 133 -14l-31 -146q-43 16 -88 17q-168 0 -197 -146l-32 -151h252l-31 -144h-252l-201 -948h-166l201 948h-213zM131 948l31 144h213 l39 182q23 104 115 181t227 77q76 0 133 -14l-31 -146q-43 16 -88 17q-168 0 -197 -146l-32 -151h252l-31 -144h-252l-201 -948h-166l201 948h-213z" />
<glyph unicode="&#xfb04;" horiz-adv-x="2045" d="M1584 0l321 1518h166l-322 -1518h-165zM889 948l31 144h213l39 182q23 104 115 181t227 77q76 0 133 -14l-31 -146q-43 16 -88 17q-168 0 -197 -146l-32 -151h252l-31 -144h-252l-201 -948h-166l201 948h-213zM131 948l31 144h213l39 182q23 104 115 181t227 77 q76 0 133 -14l-31 -146q-43 16 -88 17q-168 0 -197 -146l-32 -151h252l-31 -144h-252l-201 -948h-166l201 948h-213z" />
</font>
</defs>
</svg>
